<?xml version="1.0" encoding="UTF-8" standalone="no"?>
<svg
   xmlns:dc="http://purl.org/dc/elements/1.1/"
   xmlns:cc="http://creativecommons.org/ns#"
   xmlns:rdf="http://www.w3.org/1999/02/22-rdf-syntax-ns#"
   xmlns:svg="http://www.w3.org/2000/svg"
   xmlns="http://www.w3.org/2000/svg"
   xmlns:sodipodi="http://sodipodi.sourceforge.net/DTD/sodipodi-0.dtd"
   xmlns:inkscape="http://www.inkscape.org/namespaces/inkscape"
   viewBox="0 -256 1950 1950"
   id="svg2"
   version="1.1"
   inkscape:version="0.48.3.1 r9886"
   width="100%"
   height="100%"
   sodipodi:docname="credit_card_font_awesome.svg">
  <metadata
     id="metadata12">
    <rdf:RDF>
      <cc:Work
         rdf:about="">
        <dc:format>image/svg+xml</dc:format>
        <dc:type
           rdf:resource="http://purl.org/dc/dcmitype/StillImage" />
      </cc:Work>
    </rdf:RDF>
  </metadata>
  <defs
     id="defs10" />
  <sodipodi:namedview
     pagecolor="#ffffff"
     bordercolor="#666666"
     borderopacity="1"
     objecttolerance="10"
     gridtolerance="10"
     guidetolerance="10"
     inkscape:pageopacity="0"
     inkscape:pageshadow="2"
     inkscape:window-width="640"
     inkscape:window-height="480"
     id="namedview8"
     showgrid="false"
     inkscape:zoom="0.13169643"
     inkscape:cx="960"
     inkscape:cy="896"
     inkscape:window-x="0"
     inkscape:window-y="25"
     inkscape:window-maximized="0"
     inkscape:current-layer="svg2" />
  <g
     transform="matrix(1,0,0,-1,22.779661,1367.4915)"
     id="g4">
    <path
       d="m 1760,1408 q 66,0 113,-47 47,-47 47,-113 V 32 q 0,-66 -47,-113 -47,-47 -113,-47 H 160 Q 94,-128 47,-81 0,-34 0,32 v 1216 q 0,66 47,113 47,47 113,47 H 1760 z M 160,1280 q -13,0 -22.5,-9.5 Q 128,1261 128,1248 v -224 h 1664 v 224 q 0,13 -9.5,22.5 -9.5,9.5 -22.5,9.5 H 160 z M 1760,0 q 13,0 22.5,9.5 9.5,9.5 9.5,22.5 V 640 H 128 V 32 Q 128,19 137.5,9.5 147,0 160,0 H 1760 z M 256,128 V 256 H 512 V 128 H 256 z m 384,0 v 128 h 384 V 128 H 640 z"
       id="path6"
       inkscape:connector-curvature="0"
       style="fill:currentColor" />
  </g>
</svg>
